<svg width="17" height="18" viewBox="0 0 17 18" fill="none" xmlns="http://www.w3.org/2000/svg">
<path d="M4 1C4 0.447715 3.55228 0 3 0C2.44772 0 2 0.447715 2 1H4ZM2 7C2 7.55228 2.44772 8 3 8C3.55228 8 4 7.55228 4 7H2ZM0 3C-0.552285 3 -1 3.44772 -1 4C-1 4.55228 -0.552285 5 0 5V3ZM6 5C6.55228 5 7 4.55228 7 4C7 3.44772 6.55228 3 6 3V5ZM15.8282 12.5853C16.2187 12.1947 16.2187 11.5616 15.8282 11.1711C15.4377 10.7805 14.8045 10.7805 14.414 11.171L15.8282 12.5853ZM10.1713 15.4137C9.7808 15.8042 9.7808 16.4374 10.1713 16.8279C10.5619 17.2184 11.195 17.2184 11.5855 16.8279L10.1713 15.4137ZM11.5855 11.171C11.195 10.7805 10.5619 10.7805 10.1713 11.1711C9.7808 11.5616 9.7808 12.1947 10.1713 12.5853L11.5855 11.171ZM14.414 16.8279C14.8045 17.2184 15.4377 17.2184 15.8282 16.8279C16.2187 16.4374 16.2187 15.8042 15.8282 15.4137L14.414 16.8279ZM13 7V6C11.8954 6 11 5.10457 11 4H10H9C9 6.20914 10.7909 8 13 8V7ZM16 4H15C15 5.10457 14.1046 6 13 6V7V8C15.2091 8 17 6.20914 17 4H16ZM13 1V2C14.1046 2 15 2.89543 15 4H16H17C17 1.79086 15.2091 0 13 0V1ZM13 1V0C10.7909 0 9 1.79086 9 4H10H11C11 2.89543 11.8954 2 13 2V1ZM3 1H2V4H3H4V1H3ZM3 4H2V7H3H4V4H3ZM0 4V5H3V4V3H0V4ZM3 4V5H6V4V3H3V4ZM15.1211 11.8782L14.414 11.171L12.2926 13.2924L12.9998 13.9995L13.7069 14.7066L15.8282 12.5853L15.1211 11.8782ZM12.9998 13.9995L12.2926 13.2924L10.1713 15.4137L10.8784 16.1208L11.5855 16.8279L13.7069 14.7066L12.9998 13.9995ZM10.8784 11.8782L10.1713 12.5853L12.2926 14.7066L12.9998 13.9995L13.7069 13.2924L11.5855 11.171L10.8784 11.8782ZM12.9998 13.9995L12.2926 14.7066L14.414 16.8279L15.1211 16.1208L15.8282 15.4137L13.7069 13.2924L12.9998 13.9995ZM1 11V12H5V11V10H1V11ZM6 12H5V16H6H7V12H6ZM5 17V16H1V17V18H5V17ZM0 16H1V12H0H-1V16H0ZM1 17V16H1H0H-1C-1 17.1046 -0.104569 18 1 18V17ZM6 16H5V17V18C6.10457 18 7 17.1046 7 16H6ZM5 11V12H6H7C7 10.8954 6.10457 10 5 10V11ZM1 11V10C-0.104569 10 -1 10.8954 -1 12H0H1V11Z" fill="white"/>
</svg>
